<svg xmlns="http://www.w3.org/2000/svg" version="1.1" xmlns:xlink="http://www.w3.org/1999/xlink" xmlns:svgjs="http://svgjs.dev/svgjs" width="425" height="1080" preserveAspectRatio="none" viewBox="0 0 425 1080"><g mask="url(&quot;#SvgjsMask2291&quot;)" fill="none"><rect width="425" height="1080" x="0" y="0" fill="url(&quot;#SvgjsLinearGradient2292&quot;)"></rect><path d="M325.8255028472455 1082.5403862585963L314.3509548323656 1032.8386583638287 245.53563699765405 1074.9013443335325z" fill="rgba(253, 123, 18, 0.4)" class="triangle-float3"></path><path d="M328.88194944297624 139.79066797496407L285.12799673078666 148.29557482915658 319.76233336817023 209.6740504703447z" fill="rgba(253, 123, 18, 0.4)" class="triangle-float1"></path><path d="M405.60508777050035 1108.580767376557L414.28980854336976 1009.3139547077815 306.3382751017248 1099.8960466036876z" fill="rgba(253, 123, 18, 0.4)" class="triangle-float1"></path><path d="M244.8726312798748 770.0915564027384L327.6521944762847 765.7532633255944 240.53433820273077 687.3119932063286z" fill="rgba(253, 123, 18, 0.4)" class="triangle-float3"></path><path d="M75.8832692444923 856.8524693208215L-13.034925029403254 813.3792200746383-8.50675943143662 899.7817667941079z" fill="rgba(253, 123, 18, 0.4)" class="triangle-float1"></path><path d="M234.43470467698955 721.7378942488488L213.07713077665906 787.4697478358997 322.3536981074008 786.6401818928699z" fill="rgba(253, 123, 18, 0.4)" class="triangle-float1"></path><path d="M324.289,695.688C338.542,696.281,354.92,696.347,362.559,684.3C370.538,671.716,365.273,655.748,357.778,642.871C350.34,630.092,339.054,619.343,324.289,618.552C308.169,617.689,291.487,624.639,283.954,638.917C276.782,652.51,282.267,668.798,291.169,681.327C298.639,691.841,311.403,695.151,324.289,695.688" fill="rgba(253, 123, 18, 0.4)" class="triangle-float2"></path><path d="M280.19,855.973C318.917,853.877,343.571,819.073,362.554,785.253C380.995,752.4,394.779,714.927,378.405,680.996C359.995,642.847,322.46,611.832,280.19,614.578C240.804,617.137,220.883,657.893,201.844,692.467C183.79,725.253,164.615,761.338,180.788,795.091C198.784,832.647,238.606,858.224,280.19,855.973" fill="rgba(253, 123, 18, 0.4)" class="triangle-float2"></path><path d="M189.67182687015284 607.1477001243567L233.0272137032842 644.8359629112899 267.88191446711846 560.9587512681263z" fill="rgba(253, 123, 18, 0.4)" class="triangle-float3"></path><path d="M388.768,279.781C406.009,279.902,421.61,271.026,431.117,256.643C441.851,240.403,449.017,219.882,439.636,202.824C430.012,185.324,408.714,178.609,388.768,179.637C370.601,180.574,354.896,191.639,346.242,207.64C338.01,222.86,338.649,241.149,347.436,256.055C356.082,270.722,371.742,279.661,388.768,279.781" fill="rgba(253, 123, 18, 0.4)" class="triangle-float3"></path><path d="M383.979,515.402C421.951,516.273,462.217,502.773,479.641,469.023C496.125,437.094,477.366,401.356,458.71,370.646C441.038,341.555,417.927,314.021,383.979,311.551C345.855,308.777,306.785,325.086,287.693,358.202C268.619,391.287,275.68,432.236,295.627,464.803C314.626,495.822,347.614,514.568,383.979,515.402" fill="rgba(253, 123, 18, 0.4)" class="triangle-float2"></path><path d="M128.663,600.422C146.07,600.515,160.876,588.794,169.321,573.573C177.501,558.829,177.688,541.254,169.745,526.381C161.288,510.544,146.596,498.303,128.663,497.438C109.232,496.501,89.166,504.849,80.093,522.058C71.46,538.433,78.997,557.409,88.749,573.143C97.848,587.824,111.391,600.33,128.663,600.422" fill="rgba(253, 123, 18, 0.4)" class="triangle-float3"></path><path d="M172.35933553871683 894.9606634957138L140.7523181756939 857.2928870021436 100.05416211685014 923.5373012934631z" fill="rgba(253, 123, 18, 0.4)" class="triangle-float1"></path></g><defs><mask id="SvgjsMask2291"><rect width="425" height="1080" fill="#ffffff"></rect></mask><linearGradient x1="-38.53%" y1="15.16%" x2="138.53%" y2="84.84%" gradientUnits="userSpaceOnUse" id="SvgjsLinearGradient2292"><stop stop-color="rgba(253, 123, 18, 1)" offset="0"></stop><stop stop-color="rgba(253, 123, 18, 0)" offset="0.41"></stop></linearGradient><style>
                @keyframes float1 {
                    0%{transform: translate(0, 0)}
                    50%{transform: translate(-10px, 0)}
                    100%{transform: translate(0, 0)}
                }

                .triangle-float1 {
                    animation: float1 5s infinite;
                }

                @keyframes float2 {
                    0%{transform: translate(0, 0)}
                    50%{transform: translate(-5px, -5px)}
                    100%{transform: translate(0, 0)}
                }

                .triangle-float2 {
                    animation: float2 4s infinite;
                }

                @keyframes float3 {
                    0%{transform: translate(0, 0)}
                    50%{transform: translate(0, -10px)}
                    100%{transform: translate(0, 0)}
                }

                .triangle-float3 {
                    animation: float3 6s infinite;
                }
            </style></defs></svg>