<svg xmlns="http://www.w3.org/2000/svg" version="1.1" xmlns:xlink="http://www.w3.org/1999/xlink" xmlns:svgjs="http://svgjs.dev/svgjs" width="425" height="1080" preserveAspectRatio="none" viewBox="0 0 425 1080"><g mask="url(&quot;#SvgjsMask2344&quot;)" fill="none"><path d="M125.105,262.341C150.461,261.816,173.827,248.911,186.704,227.062C199.786,204.864,200.563,177.669,188.388,154.961C175.492,130.907,152.37,110.926,125.105,112.167C99.279,113.342,83.754,137.773,71.069,160.3C58.717,182.237,47.137,207.462,58.919,229.71C71.256,253.008,98.748,262.887,125.105,262.341" fill="rgba(252, 18, 89, 0.41)" class="triangle-float1"></path><path d="M262.388,1144.264C303.157,1146.1,347.757,1140.495,370.153,1106.38C394.335,1069.545,389.916,1021.412,368.217,983.062C346.167,944.092,307.16,915.331,262.388,915.92C218.483,916.498,181.16,946.636,161.275,985.784C143.163,1021.443,148.709,1063.658,170.221,1097.375C190.092,1128.52,225.481,1142.602,262.388,1144.264" fill="rgba(252, 18, 89, 0.41)" class="triangle-float2"></path><path d="M132.174,89.666C156.011,89.569,173.478,70.462,185.919,50.129C199.117,28.558,209.919,3.332,198.936,-19.446C186.706,-44.809,160.317,-62.245,132.174,-61.332C105.277,-60.459,84.3,-39.538,72.515,-15.345C62.171,5.891,65.996,30.032,77.664,50.57C89.502,71.408,108.208,89.764,132.174,89.666" fill="rgba(252, 18, 89, 0.41)" class="triangle-float1"></path><path d="M89.537,211.288C119.36,213.777,148.341,197.022,162.918,170.885C177.161,145.347,173.123,114.004,157.62,89.211C143.061,65.926,116.985,52.662,89.537,53.527C63.527,54.347,40.401,70.137,28.501,93.28C17.524,114.628,23.665,138.862,34.693,160.184C46.997,183.972,62.848,209.06,89.537,211.288" fill="rgba(252, 18, 89, 0.41)" class="triangle-float3"></path><path d="M393.671,339.688C425.709,338.32,456.848,324.161,472.031,295.916C486.54,268.926,477.081,237.861,463.054,210.617C447.292,180.004,428.004,146.332,393.671,143.727C356.024,140.871,321.991,165.695,303.293,198.495C284.778,230.975,282.641,271.653,302.797,303.141C321.662,332.613,358.71,341.181,393.671,339.688" fill="rgba(252, 18, 89, 0.41)" class="triangle-float2"></path><path d="M428.008,829.41C467.773,831.428,506.678,813.261,527.593,779.381C549.568,743.783,552.759,698.157,531.144,662.34C510.146,627.546,468.641,613.656,428.008,614.363C388.752,615.046,349.457,631.221,330.905,665.823C313.154,698.931,325.338,737.786,344.513,770.091C363.191,801.557,391.463,827.556,428.008,829.41" fill="rgba(252, 18, 89, 0.41)" class="triangle-float3"></path><path d="M235.3798150794959 985.9823527096617L331.27069430956334 1013.5775470088512 311.6491959405192 928.5875002060304z" fill="rgba(252, 18, 89, 0.41)" class="triangle-float3"></path><path d="M252.328,480.988C262.167,480.458,271.964,477.037,276.929,468.526C281.928,459.957,280.891,449.285,275.783,440.78C270.83,432.533,261.915,428.352,252.328,427.558C240.76,426.6,227.52,426.63,221.02,436.247C213.97,446.678,215.444,461.134,222.662,471.449C229.045,480.571,241.211,481.587,252.328,480.988" fill="rgba(252, 18, 89, 0.41)" class="triangle-float1"></path><path d="M302.198,237.152C341.369,235.723,379.587,223.476,401.825,191.198C427.618,153.76,442.769,105.011,420.575,65.334C398.008,24.99,348.424,13.376,302.198,13.093C255.346,12.806,205.635,23.841,181.285,63.87C156.161,105.172,161.471,159.311,189.135,198.956C213.533,233.921,259.59,238.706,302.198,237.152" fill="rgba(252, 18, 89, 0.41)" class="triangle-float2"></path><path d="M451.3063453992507 983.9305521624597L334.0428402144467 989.9640160606594 388.4349940736011 1077.0096579903777z" fill="rgba(252, 18, 89, 0.41)" class="triangle-float2"></path><path d="M141.361,194.875C154.503,195.196,168.374,192.529,175.678,181.599C183.745,169.528,184.399,153.698,177.366,140.998C170.119,127.913,156.318,119.479,141.361,119.632C126.65,119.782,113.421,128.681,106.609,141.721C100.256,153.882,102.323,168.507,109.831,179.99C116.648,190.416,128.908,194.571,141.361,194.875" fill="rgba(252, 18, 89, 0.41)" class="triangle-float1"></path><path d="M132.33,600.405C168.546,600.469,205.896,589.058,224.357,557.901C243.121,526.234,237.717,486.411,218.461,455.041C200.117,425.157,167.311,410.401,132.33,407.981C91.487,405.155,44.103,406.572,22.746,441.501C0.851,477.31,17.034,523.026,40.862,557.578C61.347,587.282,96.247,600.341,132.33,600.405" fill="rgba(252, 18, 89, 0.41)" class="triangle-float2"></path><path d="M193.561,492.403C230.097,492.631,269.675,488.634,289.953,458.241C312.147,424.976,310.024,381.504,291.027,346.316C270.989,309.2,235.719,278.375,193.561,279.693C153.018,280.961,125.156,316.284,106.108,352.097C88.463,385.273,79.353,425.16,99.23,457.05C118.267,487.593,157.572,492.178,193.561,492.403" fill="rgba(252, 18, 89, 0.41)" class="triangle-float1"></path><path d="M277.55,106.992C295.549,107.617,308.198,91.406,317.121,75.762C325.937,60.304,331.829,42.11,323.533,26.367C314.76,9.717,296.369,0.483,277.55,0.666C259.044,0.846,241.146,10.585,233.086,27.245C225.793,42.319,234.317,58.542,242.472,73.168C250.95,88.373,260.152,106.387,277.55,106.992" fill="rgba(252, 18, 89, 0.41)" class="triangle-float1"></path><path d="M98.26150210974664 920.661539857425L69.81392352782352 991.07176761707 189.65305445825248 998.5380216101322z" fill="rgba(252, 18, 89, 0.41)" class="triangle-float3"></path></g><defs><mask id="SvgjsMask2344"><rect width="425" height="1080" fill="#ffffff"></rect></mask><style>
                @keyframes float1 {
                    0%{transform: translate(0, 0)}
                    50%{transform: translate(-10px, 0)}
                    100%{transform: translate(0, 0)}
                }

                .triangle-float1 {
                    animation: float1 5s infinite;
                }

                @keyframes float2 {
                    0%{transform: translate(0, 0)}
                    50%{transform: translate(-5px, -5px)}
                    100%{transform: translate(0, 0)}
                }

                .triangle-float2 {
                    animation: float2 4s infinite;
                }

                @keyframes float3 {
                    0%{transform: translate(0, 0)}
                    50%{transform: translate(0, -10px)}
                    100%{transform: translate(0, 0)}
                }

                .triangle-float3 {
                    animation: float3 6s infinite;
                }
            </style></defs></svg>