<svg xmlns="http://www.w3.org/2000/svg" version="1.1" xmlns:xlink="http://www.w3.org/1999/xlink" xmlns:svgjs="http://svgjs.dev/svgjs" width="1024" height="1080" preserveAspectRatio="none" viewBox="0 0 1024 1080"><g mask="url(&quot;#SvgjsMask2361&quot;)" fill="none"><path d="M180.429,623.837C288.487,625.882,384.052,558.111,437.308,464.066C489.764,371.433,499.723,253.978,439.633,166.105C385.063,86.304,276.934,82.68,180.429,88.414C96.331,93.411,15.853,123.62,-30.4,194.034C-81.851,272.361,-101.414,370.514,-60.143,454.651C-13.869,548.987,75.374,621.849,180.429,623.837" fill="rgba(252, 18, 89, 0.41)" class="triangle-float1"></path><path d="M576.618,1117.69C640.262,1122.873,703.609,1090.551,735.062,1034.98C766.111,980.122,755.537,912.977,723.062,858.952C691.657,806.707,637.552,773.102,576.618,771.395C512.46,769.598,443.709,792.806,415.238,850.329C388.706,903.934,426.44,961.155,457.349,1012.362C486.726,1061.031,519.958,1113.075,576.618,1117.69" fill="rgba(252, 18, 89, 0.41)" class="triangle-float1"></path><path d="M754.0403664818014 761.6525602793913L910.9302411264873 736.8036452912061 795.2119313218665 513.8932908182696z" fill="rgba(252, 18, 89, 0.41)" class="triangle-float1"></path><path d="M192.029,727.654C280.386,729.467,368.154,697.741,416.529,623.78C469.738,542.429,489.07,434.837,437.408,352.495C388.004,273.753,284.654,258.11,192.029,265.961C113.706,272.6,49.881,321.343,9.477,388.768C-32.332,458.537,-55.635,543.275,-17.061,614.883C23.19,689.604,107.174,725.913,192.029,727.654" fill="rgba(252, 18, 89, 0.41)" class="triangle-float1"></path><path d="M1055.1,1236.906C1169.055,1240.513,1289.409,1198.575,1342.165,1097.503C1392.284,1001.483,1344.129,889.61,1283.072,800.146C1230.878,723.669,1147.683,675.753,1055.1,676.881C964.494,677.985,885.272,729.187,836.554,805.589C783.272,889.15,753.085,991.87,797.878,1080.273C846.509,1176.25,947.56,1233.502,1055.1,1236.906" fill="rgba(252, 18, 89, 0.41)" class="triangle-float3"></path><path d="M756.7321121258417 568.2739836297819L786.3076584254757 327.400488768961 515.8586172650207 538.698437330148z" fill="rgba(252, 18, 89, 0.41)" class="triangle-float3"></path><path d="M934.58,988.182C962.976,987.187,982.934,962.07,994.822,936.264C1004.756,914.701,999.659,891.277,988.994,870.067C976.734,845.686,961.779,818.684,934.58,816.458C904.556,814,876.649,833.262,862.187,859.687C848.262,885.132,852.314,915.487,866.552,940.758C881.094,966.57,904.971,989.22,934.58,988.182" fill="rgba(252, 18, 89, 0.41)" class="triangle-float3"></path><path d="M978.127,480.051C1046.063,482.256,1123.316,477.408,1158.383,419.18C1194.143,359.801,1168.517,285.09,1130.409,227.189C1096.448,175.59,1039.886,146.583,978.127,145.302C913.782,143.967,848.123,165.762,814.492,220.635C779.49,277.744,781.322,351.45,817.057,408.103C850.681,461.409,915.135,478.007,978.127,480.051" fill="rgba(252, 18, 89, 0.41)" class="triangle-float3"></path><path d="M104.32661053550048 367.1375074180209L379.31515797262205 308.68688727615245 45.87599039363201 92.14895998089935z" fill="rgba(252, 18, 89, 0.41)" class="triangle-float2"></path><path d="M634.367,838.746C712.069,837.885,794.283,826.173,837.804,761.797C886.27,690.107,890.492,596.327,849.931,519.887C806.752,438.512,726.366,373.661,634.367,378.401C547.929,382.854,495.533,464.274,454.122,540.278C415.107,611.885,380.816,696.587,422.971,766.392C464.237,834.724,554.546,839.63,634.367,838.746" fill="rgba(252, 18, 89, 0.41)" class="triangle-float2"></path><path d="M777.5968621013343 730.223177666113L956.465156726322 723.9769591801316 857.6616816848561 458.79762648564093z" fill="rgba(252, 18, 89, 0.41)" class="triangle-float3"></path><path d="M1071.57122417546 571.4749852283956L1129.02231608415 442.4377201005266 906.7408724380015 420.779714801426z" fill="rgba(252, 18, 89, 0.41)" class="triangle-float2"></path><path d="M229.2885309125732 107.21728699000786L208.99467941082796 339.177071079428 461.2483150019933 127.51113849175312z" fill="rgba(252, 18, 89, 0.41)" class="triangle-float3"></path><path d="M593.3021375097522 495.6201610267501L393.47720019216774 414.6640364832356 416.4458425626076 601.7286169283535z" fill="rgba(252, 18, 89, 0.41)" class="triangle-float3"></path><path d="M534.8358141391818 100.71690744826073L449.42172669971615-53.37418526546442 380.74472142545665 186.13099488772644z" fill="rgba(252, 18, 89, 0.41)" class="triangle-float3"></path></g><defs><mask id="SvgjsMask2361"><rect width="1024" height="1080" fill="#ffffff"></rect></mask><style>
                @keyframes float1 {
                    0%{transform: translate(0, 0)}
                    50%{transform: translate(-10px, 0)}
                    100%{transform: translate(0, 0)}
                }

                .triangle-float1 {
                    animation: float1 5s infinite;
                }

                @keyframes float2 {
                    0%{transform: translate(0, 0)}
                    50%{transform: translate(-5px, -5px)}
                    100%{transform: translate(0, 0)}
                }

                .triangle-float2 {
                    animation: float2 4s infinite;
                }

                @keyframes float3 {
                    0%{transform: translate(0, 0)}
                    50%{transform: translate(0, -10px)}
                    100%{transform: translate(0, 0)}
                }

                .triangle-float3 {
                    animation: float3 6s infinite;
                }
            </style></defs></svg>