<svg xmlns="http://www.w3.org/2000/svg" version="1.1" xmlns:xlink="http://www.w3.org/1999/xlink" xmlns:svgjs="http://svgjs.dev/svgjs" width="425" height="1080" preserveAspectRatio="none" viewBox="0 0 425 1080"><g mask="url(&quot;#SvgjsMask2388&quot;)" fill="none"><path d="M120.13837767671819 621.1311904649807L183.44414309622283 726.7174785387626 237.25291564432302 633.5179505925356z" fill="rgba(255, 219, 21, 0.35)" class="triangle-float2"></path><path d="M237.827,1061.896C261.575,1061.018,282.51,1048.438,295.302,1028.411C309.306,1006.486,318.435,978.73,305.288,956.28C292.234,933.99,263.643,929.383,237.827,930.269C213.848,931.092,190.813,940.405,177.933,960.648C164.027,982.503,159.303,1010.654,172.492,1032.949C185.49,1054.922,212.314,1062.839,237.827,1061.896" fill="rgba(255, 219, 21, 0.35)" class="triangle-float2"></path><path d="M254.17565759102143 679.9991363519392L309.89431291390196 647.8299557023902 222.00647694147233 624.2804810290587z" fill="rgba(255, 219, 21, 0.35)" class="triangle-float1"></path><path d="M352.9658858312394 23.06179618830664L337.18832207750364 122.06665065021159 419.54099736365845 92.09272813386133z" fill="rgba(255, 219, 21, 0.35)" class="triangle-float3"></path><path d="M415.971,875.22C451.11,876.161,490.396,871.345,508.245,841.062C526.275,810.472,511.576,773.59,494.087,742.688C476.242,711.156,452.171,679.516,415.971,678.017C377.753,676.435,343.728,701.937,325.785,735.719C308.892,767.525,312.328,806.094,331.88,836.338C349.85,864.134,382.884,874.334,415.971,875.22" fill="rgba(255, 219, 21, 0.35)" class="triangle-float2"></path><path d="M1.9603819978604626 112.60464376652163L59.93788064633202 142.14565482594674 31.501393057285554 54.62714511805007z" fill="rgba(255, 219, 21, 0.35)" class="triangle-float2"></path><path d="M56.004,41.378C70.696,40.655,83.245,31.135,89.911,18.022C95.987,6.07,93.944,-7.983,86.892,-19.387C80.228,-30.163,68.65,-36.036,56.004,-36.811C41.586,-37.694,25.971,-35.521,17.784,-23.62C8.604,-10.275,7.565,7.71,15.775,21.673C23.887,35.469,40.019,42.165,56.004,41.378" fill="rgba(255, 219, 21, 0.35)" class="triangle-float3"></path><path d="M105.23909221201515 462.72188377501686L48.621845049486666 471.6891747795699 90.38140513758044 552.1314000210862z" fill="rgba(255, 219, 21, 0.35)" class="triangle-float3"></path><path d="M75.474,179.281C115.316,180.047,157.627,168.938,177.611,134.462C197.639,99.909,185.857,57.879,165.893,23.289C145.923,-11.31,115.41,-43.514,75.474,-42.499C36.708,-41.514,11.416,-6.26,-7.32,27.692C-25.23,60.147,-37.851,98.129,-20.082,130.662C-1.721,164.279,37.177,178.545,75.474,179.281" fill="rgba(255, 219, 21, 0.35)" class="triangle-float3"></path><path d="M133.993,317.226C172.573,316.038,209.702,301.216,230.529,268.719C253.151,233.422,259.987,188.633,240.04,151.758C219.202,113.236,177.788,89.836,133.993,90.257C90.893,90.671,53.082,116.499,31.417,153.761C9.629,191.235,3.539,238.282,26.58,274.999C48.497,309.926,92.779,318.495,133.993,317.226" fill="rgba(255, 219, 21, 0.35)" class="triangle-float1"></path><path d="M71.37547474751125 560.4657491893392L23.69832580411793 457.96685268671115-34.38600357569503 537.9130735077783z" fill="rgba(255, 219, 21, 0.35)" class="triangle-float1"></path><path d="M131.60887338912795 358.39965992606113L150.5916328548968 416.8225862240156 228.73464256894403 359.1369838763851z" fill="rgba(255, 219, 21, 0.35)" class="triangle-float2"></path><path d="M291.521,466.922C323.688,465.07,344.189,436.114,359.679,407.862C374.384,381.042,384.731,349.99,370.469,322.931C355.382,294.307,323.84,276.968,291.521,278.546C261.47,280.013,240.421,304.274,224.882,330.037C208.622,356.996,194.486,388.271,208.267,416.578C223.482,447.83,256.819,468.92,291.521,466.922" fill="rgba(255, 219, 21, 0.35)" class="triangle-float2"></path><path d="M236.153,684.765C248.72,684.8,262.415,682.07,268.574,671.116C274.652,660.307,269.294,647.584,263.099,636.841C256.897,626.086,248.568,614.893,236.153,614.898C223.743,614.903,215.414,626.094,209.244,636.862C203.122,647.546,198.013,660.201,204.044,670.937C210.161,681.826,223.663,684.73,236.153,684.765" fill="rgba(255, 219, 21, 0.35)" class="triangle-float2"></path><path d="M367.719,508.382C406.127,508.071,437.098,481.679,457.382,449.063C479.161,414.043,495.071,371.369,475.509,335.064C455.197,297.368,410.477,280.355,367.719,282.658C328.698,284.759,297.135,311.432,278.322,345.683C260.281,378.527,257.464,417.692,275.509,450.534C294.237,484.618,328.83,508.696,367.719,508.382" fill="rgba(255, 219, 21, 0.35)" class="triangle-float2"></path></g><defs><mask id="SvgjsMask2388"><rect width="425" height="1080" fill="#ffffff"></rect></mask><style>
                @keyframes float1 {
                    0%{transform: translate(0, 0)}
                    50%{transform: translate(-10px, 0)}
                    100%{transform: translate(0, 0)}
                }

                .triangle-float1 {
                    animation: float1 5s infinite;
                }

                @keyframes float2 {
                    0%{transform: translate(0, 0)}
                    50%{transform: translate(-5px, -5px)}
                    100%{transform: translate(0, 0)}
                }

                .triangle-float2 {
                    animation: float2 4s infinite;
                }

                @keyframes float3 {
                    0%{transform: translate(0, 0)}
                    50%{transform: translate(0, -10px)}
                    100%{transform: translate(0, 0)}
                }

                .triangle-float3 {
                    animation: float3 6s infinite;
                }
            </style></defs></svg>