<svg xmlns="http://www.w3.org/2000/svg" version="1.1" xmlns:xlink="http://www.w3.org/1999/xlink" xmlns:svgjs="http://svgjs.dev/svgjs" width="1024" height="1080" preserveAspectRatio="none" viewBox="0 0 1024 1080"><g mask="url(&quot;#SvgjsMask2372&quot;)" fill="none"><path d="M1093.081,556.886C1177.015,557.171,1236.067,483.703,1276.599,410.204C1315.405,339.834,1336.635,256.417,1297.477,186.242C1257.48,114.564,1175.161,81.958,1093.081,81.325C1009.741,80.682,923.512,110.129,883.149,183.045C843.748,254.222,871.878,338.027,911.712,408.963C952.653,481.869,1009.466,556.602,1093.081,556.886" fill="rgba(255, 219, 21, 0.35)" class="triangle-float3"></path><path d="M1131.3631732924152 806.7270476232593L931.1938471279507 583.989969883663 845.9666431703431 831.5077426912428z" fill="rgba(255, 219, 21, 0.35)" class="triangle-float2"></path><path d="M342.3593716665424 269.4439937870663L404.7627345937997 169.57773736629633 223.76166849901614 125.9058211857955z" fill="rgba(255, 219, 21, 0.35)" class="triangle-float3"></path><path d="M775.793,551.423C834.849,549.539,882.931,506.666,909.274,453.777C932.851,406.441,924.514,351.911,897.938,306.191C871.519,260.741,828.242,227.709,775.793,224.14C716.198,220.084,652.653,236.685,621.004,287.344C587.775,340.532,594.981,408.687,626.695,462.793C658.031,516.254,713.857,553.399,775.793,551.423" fill="rgba(255, 219, 21, 0.35)" class="triangle-float2"></path><path d="M899.125265955671 1070.660731731041L1072.3022106074495 966.6055255662717 829.6309290344063 758.8677116709887z" fill="rgba(255, 219, 21, 0.35)" class="triangle-float3"></path><path d="M949.140197317917 643.7478509591608L754.7894794461777 394.50102119566975 646.834659572456 648.8266389972543z" fill="rgba(255, 219, 21, 0.35)" class="triangle-float1"></path><path d="M294.247,447.619C378.591,448.13,457.338,405.223,500.513,332.765C544.744,258.536,552.071,164.556,506.753,90.986C463.283,20.416,376.921,-7.993,294.247,-2.092C221.311,3.114,166.473,55.494,128.5,117.983C88.54,183.741,57.697,261.545,92.264,330.291C129.753,404.849,210.797,447.113,294.247,447.619" fill="rgba(255, 219, 21, 0.35)" class="triangle-float1"></path><path d="M246.655,788.918C281.247,789.149,317.708,782.909,337.057,754.233C358.596,722.312,363.933,678.711,342.688,646.594C322.914,616.7,282.449,615.721,246.655,617.568C214.948,619.204,183.722,629.098,166.381,655.693C147.32,684.925,140.31,723.149,158.32,753.039C175.9,782.215,212.593,788.69,246.655,788.918" fill="rgba(255, 219, 21, 0.35)" class="triangle-float3"></path><path d="M261.362,1135.62C335.888,1134.856,421.449,1134.905,459.693,1070.935C498.526,1005.98,467.344,924.672,424.958,861.977C388.123,807.493,326.986,781.911,261.362,777.574C184.913,772.522,99.017,774.519,55.472,837.558C7.244,907.377,7.633,1005.256,55.861,1075.075C99.362,1138.05,184.827,1136.405,261.362,1135.62" fill="rgba(255, 219, 21, 0.35)" class="triangle-float1"></path><path d="M322.88478689023736-36.06979861285434L230.79346558837457-91.40384693735757 193.8380537525511 74.40015917768821z" fill="rgba(255, 219, 21, 0.35)" class="triangle-float1"></path><path d="M842.007,983.948C919.506,982.265,995.787,952.237,1035.421,885.618C1075.892,817.592,1073.996,731.368,1032.307,664.081C992.646,600.066,917.307,572.515,842.007,573.44C768.512,574.343,699.686,607.027,659.637,668.659C615.409,736.721,592.835,824.083,633.476,894.346C674.076,964.537,760.939,985.708,842.007,983.948" fill="rgba(255, 219, 21, 0.35)" class="triangle-float2"></path><path d="M338.08,1060.974C364.498,1062.067,389.39,1048.133,403.02,1025.476C417.085,1002.096,418.484,973.06,405.356,949.141C391.724,924.303,366.399,908.056,338.08,907.152C308.099,906.195,276.271,917.729,262.932,944.596C250.511,969.614,266.672,996.997,281.824,1020.462C295.259,1041.268,313.334,1059.95,338.08,1060.974" fill="rgba(255, 219, 21, 0.35)" class="triangle-float2"></path><path d="M536.8342664203806 595.1461878136035L620.4733004950305 415.7817004157821 357.4697790225591 511.5071537389537z" fill="rgba(255, 219, 21, 0.35)" class="triangle-float2"></path><path d="M126.946,679.221C153.62,677.833,174.223,657.215,185.831,633.159C195.944,612.201,192.2,588.356,180.498,568.242C168.875,548.263,150.022,533.262,126.946,531.939C101.371,530.473,75.602,539.983,61.588,561.427C46.217,584.946,42.76,615.328,56.391,639.896C70.392,665.13,98.127,680.721,126.946,679.221" fill="rgba(255, 219, 21, 0.35)" class="triangle-float1"></path><path d="M318.2269273027112 83.03522460822103L131.97752548281318 338.8724470310928 406.543922635153 372.58496154413535z" fill="rgba(255, 219, 21, 0.35)" class="triangle-float3"></path></g><defs><mask id="SvgjsMask2372"><rect width="1024" height="1080" fill="#ffffff"></rect></mask><style>
                @keyframes float1 {
                    0%{transform: translate(0, 0)}
                    50%{transform: translate(-10px, 0)}
                    100%{transform: translate(0, 0)}
                }

                .triangle-float1 {
                    animation: float1 5s infinite;
                }

                @keyframes float2 {
                    0%{transform: translate(0, 0)}
                    50%{transform: translate(-5px, -5px)}
                    100%{transform: translate(0, 0)}
                }

                .triangle-float2 {
                    animation: float2 4s infinite;
                }

                @keyframes float3 {
                    0%{transform: translate(0, 0)}
                    50%{transform: translate(0, -10px)}
                    100%{transform: translate(0, 0)}
                }

                .triangle-float3 {
                    animation: float3 6s infinite;
                }
            </style></defs></svg>